<?xml version="1.0" encoding="UTF-8" standalone="no"?>
<!DOCTYPE svg PUBLIC "-//W3C//DTD SVG 1.1//EN"
 "http://www.w3.org/Graphics/SVG/1.1/DTD/svg11.dtd">
<!-- Generated by graphviz version 2.43.0 (0)
 -->
<!-- Title: db_model Pages: 1 -->
<svg width="903pt" height="307pt"
 viewBox="0.00 0.00 903.00 307.00" xmlns="http://www.w3.org/2000/svg" xmlns:xlink="http://www.w3.org/1999/xlink">
<g id="graph0" class="graph" transform="scale(1 1) rotate(0) translate(4 303)">
<title>db_model</title>
<polygon fill="white" stroke="transparent" points="-4,4 -4,-303 899,-303 899,4 -4,4"/>
<text text-anchor="middle" x="447.5" y="-287" font-family="Times,serif" font-size="10.00">Cloud Testing Agent DB Model</text>
<!-- user -->
<g id="node1" class="node">
<title>user</title>
<polygon fill="none" stroke="black" points="25.5,-0.5 25.5,-78.5 163.5,-78.5 163.5,-0.5 25.5,-0.5"/>
<text text-anchor="middle" x="44" y="-37.3" font-family="Helvetica,sans-Serif" font-size="9.00">User</text>
<polyline fill="none" stroke="black" points="62.5,-0.5 62.5,-78.5 "/>
<text text-anchor="start" x="70.5" y="-67.3" font-family="Helvetica,sans-Serif" font-size="9.00">id PK</text>
<text text-anchor="start" x="70.5" y="-57.3" font-family="Helvetica,sans-Serif" font-size="9.00">username UNIQUE</text>
<text text-anchor="start" x="70.5" y="-47.3" font-family="Helvetica,sans-Serif" font-size="9.00">password</text>
<text text-anchor="start" x="70.5" y="-37.3" font-family="Helvetica,sans-Serif" font-size="9.00">email</text>
<text text-anchor="start" x="70.5" y="-27.3" font-family="Helvetica,sans-Serif" font-size="9.00">roles</text>
<text text-anchor="start" x="70.5" y="-17.3" font-family="Helvetica,sans-Serif" font-size="9.00">createdAt</text>
<text text-anchor="start" x="70.5" y="-7.3" font-family="Helvetica,sans-Serif" font-size="9.00">updatedAt</text>
</g>
<!-- refresh_session -->
<g id="node2" class="node">
<title>refresh_session</title>
<polygon fill="none" stroke="black" points="272,-5.5 272,-73.5 469,-73.5 469,-5.5 272,-5.5"/>
<text text-anchor="middle" x="314" y="-37.3" font-family="Helvetica,sans-Serif" font-size="9.00">RefreshSession</text>
<polyline fill="none" stroke="black" points="356,-5.5 356,-73.5 "/>
<text text-anchor="start" x="364" y="-62.3" font-family="Helvetica,sans-Serif" font-size="9.00">id PK</text>
<text text-anchor="start" x="364" y="-52.3" font-family="Helvetica,sans-Serif" font-size="9.00">user_id FK</text>
<text text-anchor="start" x="364" y="-42.3" font-family="Helvetica,sans-Serif" font-size="9.00">refreshToken UNIQUE</text>
<text text-anchor="start" x="364" y="-32.3" font-family="Helvetica,sans-Serif" font-size="9.00">expiresIn</text>
<text text-anchor="start" x="364" y="-22.3" font-family="Helvetica,sans-Serif" font-size="9.00">createdAt</text>
<text text-anchor="start" x="364" y="-12.3" font-family="Helvetica,sans-Serif" font-size="9.00">updatedAt</text>
</g>
<!-- user&#45;&gt;refresh_session -->
<g id="edge1" class="edge">
<title>user&#45;&gt;refresh_session</title>
<path fill="none" stroke="black" d="M163.58,-39.5C193.17,-39.5 228.56,-39.5 261.58,-39.5"/>
<polygon fill="black" stroke="black" points="261.75,-39.5 271.75,-44 266.75,-39.5 271.75,-39.5 271.75,-39.5 271.75,-39.5 266.75,-39.5 271.75,-35 261.75,-39.5 261.75,-39.5"/>
<text text-anchor="middle" x="230.5" y="-42.3" font-family="Helvetica,sans-Serif" font-size="9.00">1 to many</text>
</g>
<!-- pm_collection -->
<g id="node3" class="node">
<title>pm_collection</title>
<polygon fill="none" stroke="black" points="15,-184.5 15,-252.5 174,-252.5 174,-184.5 15,-184.5"/>
<text text-anchor="middle" x="52" y="-216.3" font-family="Helvetica,sans-Serif" font-size="9.00">PmCollection</text>
<polyline fill="none" stroke="black" points="89,-184.5 89,-252.5 "/>
<text text-anchor="start" x="97" y="-241.3" font-family="Helvetica,sans-Serif" font-size="9.00">id PK</text>
<text text-anchor="start" x="97" y="-231.3" font-family="Helvetica,sans-Serif" font-size="9.00">ref UNIQUE</text>
<text text-anchor="start" x="97" y="-221.3" font-family="Helvetica,sans-Serif" font-size="9.00">name</text>
<text text-anchor="start" x="97" y="-211.3" font-family="Helvetica,sans-Serif" font-size="9.00">collection JSON</text>
<text text-anchor="start" x="97" y="-201.3" font-family="Helvetica,sans-Serif" font-size="9.00">createdAt</text>
<text text-anchor="start" x="97" y="-191.3" font-family="Helvetica,sans-Serif" font-size="9.00">updatedAt</text>
</g>
<!-- task -->
<g id="node5" class="node">
<title>task</title>
<polygon fill="none" stroke="black" points="302.5,-128.5 302.5,-236.5 438.5,-236.5 438.5,-128.5 302.5,-128.5"/>
<text text-anchor="middle" x="320" y="-180.3" font-family="Helvetica,sans-Serif" font-size="9.00">Task</text>
<polyline fill="none" stroke="black" points="337.5,-128.5 337.5,-236.5 "/>
<text text-anchor="start" x="345.5" y="-225.3" font-family="Helvetica,sans-Serif" font-size="9.00">id PK</text>
<text text-anchor="start" x="345.5" y="-215.3" font-family="Helvetica,sans-Serif" font-size="9.00">collection_id FK</text>
<text text-anchor="start" x="345.5" y="-205.3" font-family="Helvetica,sans-Serif" font-size="9.00">environment_id FK</text>
<text text-anchor="start" x="345.5" y="-195.3" font-family="Helvetica,sans-Serif" font-size="9.00">schedule_id FK?</text>
<text text-anchor="start" x="345.5" y="-185.3" font-family="Helvetica,sans-Serif" font-size="9.00">status</text>
<text text-anchor="start" x="345.5" y="-175.3" font-family="Helvetica,sans-Serif" font-size="9.00">testStatus</text>
<text text-anchor="start" x="345.5" y="-165.3" font-family="Helvetica,sans-Serif" font-size="9.00">type</text>
<text text-anchor="start" x="345.5" y="-155.3" font-family="Helvetica,sans-Serif" font-size="9.00">options JSON</text>
<text text-anchor="start" x="345.5" y="-145.3" font-family="Helvetica,sans-Serif" font-size="9.00">createdAt</text>
<text text-anchor="start" x="345.5" y="-135.3" font-family="Helvetica,sans-Serif" font-size="9.00">updatedAt</text>
</g>
<!-- pm_collection&#45;&gt;task -->
<g id="edge2" class="edge">
<title>pm_collection&#45;&gt;task</title>
<path fill="none" stroke="black" d="M174.02,-208.18C211.02,-203.32 255.03,-197.54 291.92,-192.69"/>
<polygon fill="black" stroke="black" points="292.21,-192.66 302.71,-195.81 297.16,-192 302.12,-191.35 302.12,-191.35 302.12,-191.35 297.16,-192 301.53,-186.89 292.21,-192.66 292.21,-192.66"/>
<text text-anchor="middle" x="230.5" y="-206.3" font-family="Helvetica,sans-Serif" font-size="9.00">1 to many</text>
</g>
<!-- pm_environment -->
<g id="node4" class="node">
<title>pm_environment</title>
<polygon fill="none" stroke="black" points="0,-97.5 0,-165.5 189,-165.5 189,-97.5 0,-97.5"/>
<text text-anchor="middle" x="44.5" y="-129.3" font-family="Helvetica,sans-Serif" font-size="9.00">PmEnvironment</text>
<polyline fill="none" stroke="black" points="89,-97.5 89,-165.5 "/>
<text text-anchor="start" x="97" y="-154.3" font-family="Helvetica,sans-Serif" font-size="9.00">id PK</text>
<text text-anchor="start" x="97" y="-144.3" font-family="Helvetica,sans-Serif" font-size="9.00">ref UNIQUE</text>
<text text-anchor="start" x="97" y="-134.3" font-family="Helvetica,sans-Serif" font-size="9.00">name</text>
<text text-anchor="start" x="97" y="-124.3" font-family="Helvetica,sans-Serif" font-size="9.00">environment JSON</text>
<text text-anchor="start" x="97" y="-114.3" font-family="Helvetica,sans-Serif" font-size="9.00">createdAt</text>
<text text-anchor="start" x="97" y="-104.3" font-family="Helvetica,sans-Serif" font-size="9.00">updatedAt</text>
</g>
<!-- pm_environment&#45;&gt;task -->
<g id="edge3" class="edge">
<title>pm_environment&#45;&gt;task</title>
<path fill="none" stroke="black" d="M189.03,-148.91C222.6,-155.16 260.06,-162.13 292.11,-168.1"/>
<polygon fill="black" stroke="black" points="292.49,-168.17 301.5,-174.42 297.4,-169.08 302.32,-170 302.32,-170 302.32,-170 297.4,-169.08 303.14,-165.57 292.49,-168.17 292.49,-168.17"/>
<text text-anchor="middle" x="230.5" y="-163.3" font-family="Helvetica,sans-Serif" font-size="9.00">1 to many</text>
</g>
<!-- pm_report -->
<g id="node6" class="node">
<title>pm_report</title>
<polygon fill="none" stroke="black" points="555.5,-201.5 555.5,-269.5 686.5,-269.5 686.5,-201.5 555.5,-201.5"/>
<text text-anchor="middle" x="586" y="-233.3" font-family="Helvetica,sans-Serif" font-size="9.00">PmReport</text>
<polyline fill="none" stroke="black" points="616.5,-201.5 616.5,-269.5 "/>
<text text-anchor="start" x="624.5" y="-258.3" font-family="Helvetica,sans-Serif" font-size="9.00">id PK</text>
<text text-anchor="start" x="624.5" y="-248.3" font-family="Helvetica,sans-Serif" font-size="9.00">task_id FK</text>
<text text-anchor="start" x="624.5" y="-238.3" font-family="Helvetica,sans-Serif" font-size="9.00">report JSON</text>
<text text-anchor="start" x="624.5" y="-228.3" font-family="Helvetica,sans-Serif" font-size="9.00">status</text>
<text text-anchor="start" x="624.5" y="-218.3" font-family="Helvetica,sans-Serif" font-size="9.00">createdAt</text>
<text text-anchor="start" x="624.5" y="-208.3" font-family="Helvetica,sans-Serif" font-size="9.00">updatedAt</text>
</g>
<!-- task&#45;&gt;pm_report -->
<g id="edge4" class="edge">
<title>task&#45;&gt;pm_report</title>
<path fill="none" stroke="black" d="M438.75,-196.84C471.72,-203.87 511.52,-212.36 545.42,-219.59"/>
<polygon fill="black" stroke="black" points="545.49,-219.61 554.33,-226.1 550.38,-220.65 555.27,-221.69 555.27,-221.69 555.27,-221.69 550.38,-220.65 556.21,-217.29 545.49,-219.61 545.49,-219.61"/>
<text text-anchor="middle" x="510.5" y="-219.3" font-family="Helvetica,sans-Serif" font-size="9.00">1 to many</text>
</g>
<!-- pm_schedule -->
<g id="node7" class="node">
<title>pm_schedule</title>
<polygon fill="none" stroke="black" points="552,-124.5 552,-182.5 690,-182.5 690,-124.5 552,-124.5"/>
<text text-anchor="middle" x="588.5" y="-151.3" font-family="Helvetica,sans-Serif" font-size="9.00">PmSchedule</text>
<polyline fill="none" stroke="black" points="625,-124.5 625,-182.5 "/>
<text text-anchor="start" x="633" y="-171.3" font-family="Helvetica,sans-Serif" font-size="9.00">id PK</text>
<text text-anchor="start" x="633" y="-161.3" font-family="Helvetica,sans-Serif" font-size="9.00">cron</text>
<text text-anchor="start" x="633" y="-151.3" font-family="Helvetica,sans-Serif" font-size="9.00">name</text>
<text text-anchor="start" x="633" y="-141.3" font-family="Helvetica,sans-Serif" font-size="9.00">createdAt</text>
<text text-anchor="start" x="633" y="-131.3" font-family="Helvetica,sans-Serif" font-size="9.00">updatedAt</text>
</g>
<!-- task&#45;&gt;pm_schedule -->
<g id="edge5" class="edge">
<title>task&#45;&gt;pm_schedule</title>
<path fill="none" stroke="black" d="M438.75,-174.65C470.53,-170.94 508.67,-166.49 541.74,-162.63"/>
<polygon fill="black" stroke="black" points="542.31,-166.09 551.83,-161.45 541.5,-159.14 542.31,-166.09"/>
<text text-anchor="middle" x="510.5" y="-172.3" font-family="Helvetica,sans-Serif" font-size="9.00">0..1 to 1</text>
</g>
<!-- pm_test -->
<g id="node8" class="node">
<title>pm_test</title>
<polygon fill="none" stroke="black" points="766,-191.5 766,-279.5 895,-279.5 895,-191.5 766,-191.5"/>
<text text-anchor="middle" x="790" y="-233.3" font-family="Helvetica,sans-Serif" font-size="9.00">PmTest</text>
<polyline fill="none" stroke="black" points="814,-191.5 814,-279.5 "/>
<text text-anchor="start" x="822" y="-268.3" font-family="Helvetica,sans-Serif" font-size="9.00">id PK</text>
<text text-anchor="start" x="822" y="-258.3" font-family="Helvetica,sans-Serif" font-size="9.00">report_id FK?</text>
<text text-anchor="start" x="822" y="-248.3" font-family="Helvetica,sans-Serif" font-size="9.00">taskId (string)</text>
<text text-anchor="start" x="822" y="-238.3" font-family="Helvetica,sans-Serif" font-size="9.00">options JSON</text>
<text text-anchor="start" x="822" y="-228.3" font-family="Helvetica,sans-Serif" font-size="9.00">status</text>
<text text-anchor="start" x="822" y="-218.3" font-family="Helvetica,sans-Serif" font-size="9.00">testStatus</text>
<text text-anchor="start" x="822" y="-208.3" font-family="Helvetica,sans-Serif" font-size="9.00">createdAt</text>
<text text-anchor="start" x="822" y="-198.3" font-family="Helvetica,sans-Serif" font-size="9.00">updatedAt</text>
</g>
<!-- pm_report&#45;&gt;pm_test -->
<g id="edge6" class="edge">
<title>pm_report&#45;&gt;pm_test</title>
<path fill="none" stroke="black" d="M686.52,-235.5C708.39,-235.5 732.99,-235.5 755.54,-235.5"/>
<polygon fill="black" stroke="black" points="755.74,-239 765.74,-235.5 755.74,-232 755.74,-239"/>
<text text-anchor="middle" x="728" y="-238.3" font-family="Helvetica,sans-Serif" font-size="9.00">0..1 to 1</text>
</g>
</g>
</svg>
